<svg width="84" height="58" viewBox="0 0 84 58" fill="none" xmlns="http://www.w3.org/2000/svg">
<rect x="0.5" y="0.5" width="83" height="57" rx="3.5" fill="white" stroke="#F3F3F3"/>
<path fill-rule="evenodd" clip-rule="evenodd" d="M28.4808 23.453C29.0689 23.453 29.5763 23.5577 30.0031 23.764C30.4317 23.972 30.786 24.2522 31.0696 24.6047C31.3496 24.9589 31.558 25.3732 31.6925 25.8475C31.8262 26.3236 31.8932 26.8349 31.8932 27.3827C31.8932 28.2235 31.7387 29.0186 31.4261 29.7677C31.114 30.5177 30.6899 31.1685 30.1508 31.7235C29.6121 32.2782 28.976 32.715 28.2425 33.0377C27.51 33.3612 26.7139 33.5223 25.859 33.5223C25.7485 33.5223 25.5541 33.5196 25.2796 33.5133C25.005 33.5079 24.6893 33.4799 24.3359 33.4321C23.9802 33.3829 23.6042 33.3098 23.2069 33.2119C22.81 33.1157 22.4331 32.9808 22.0779 32.8098L25.252 19.5251L28.0948 19.086L26.9586 23.8001C27.2019 23.6908 27.447 23.606 27.6916 23.5446C27.9376 23.4851 28.2 23.453 28.4808 23.453ZM26.0964 31.2763C26.5246 31.2763 26.9278 31.1716 27.307 30.9654C27.6871 30.7596 28.0151 30.4812 28.2896 30.1342C28.5642 29.7862 28.7821 29.3936 28.9407 28.955C29.0992 28.5168 29.1794 28.0596 29.1794 27.5836C29.1794 26.9991 29.0816 26.5429 28.8859 26.2135C28.6901 25.8849 28.3286 25.7202 27.8031 25.7202C27.6309 25.7202 27.4089 25.7527 27.1339 25.8109C26.858 25.8737 26.6111 26.0023 26.3896 26.1959L25.1795 31.2028C25.2524 31.215 25.3172 31.2276 25.372 31.2389C25.4259 31.2511 25.4853 31.2601 25.5446 31.2664C25.6076 31.2736 25.6792 31.2768 25.7657 31.2768C25.8522 31.2768 25.9619 31.2763 26.0964 31.2763Z" fill="#4D4D4D"/>
<path fill-rule="evenodd" clip-rule="evenodd" d="M34.8426 33.2673H32.127L34.4203 23.6556H37.1545L34.8426 33.2673ZM36.1637 22.4855C35.7845 22.4855 35.4411 22.3727 35.1362 22.1479C34.8285 21.9241 34.6763 21.5793 34.6763 21.1149C34.6763 20.8595 34.7284 20.6194 34.8317 20.3938C34.9364 20.1682 35.0736 19.9732 35.2453 19.8085C35.417 19.6447 35.6155 19.5138 35.8411 19.415C36.0681 19.318 36.3096 19.2697 36.5669 19.2697C36.9456 19.2697 37.2877 19.3821 37.5935 19.6072C37.8984 19.8333 38.052 20.1781 38.052 20.6398C38.052 20.8961 38.0003 21.1371 37.8957 21.3627C37.7919 21.5883 37.6551 21.7824 37.4834 21.948C37.3135 22.1118 37.1128 22.2422 36.8876 22.3402C36.6607 22.4385 36.4206 22.4855 36.1637 22.4855Z" fill="#4D4D4D"/>
<path fill-rule="evenodd" clip-rule="evenodd" d="M39.5335 21.2621L42.3777 20.823L41.6791 23.6556H44.725L44.175 25.8845H41.1472L40.3408 29.2469C40.2665 29.5272 40.2244 29.7889 40.2126 30.0317C40.1995 30.2763 40.2303 30.4861 40.3037 30.6626C40.3766 30.8395 40.508 30.9758 40.6983 31.0728C40.8876 31.1707 41.159 31.2199 41.5142 31.2199C41.8069 31.2199 42.0923 31.1924 42.3682 31.1369C42.6423 31.0832 42.9205 31.0074 43.2018 30.9085L43.4043 32.993C43.0374 33.127 42.64 33.2425 42.2119 33.3395C41.7833 33.4375 41.2755 33.4849 40.6888 33.4849C39.8452 33.4849 39.191 33.3608 38.7252 33.1121C38.2599 32.8616 37.931 32.52 37.734 32.0873C37.5396 31.6563 37.4531 31.159 37.4775 30.5989C37.5029 30.0376 37.5876 29.4473 37.734 28.8259L39.5335 21.2621Z" fill="#4D4D4D"/>
<path fill-rule="evenodd" clip-rule="evenodd" d="M44.6054 29.4306C44.6054 28.6025 44.7399 27.8223 45.009 27.0907C45.2772 26.3592 45.6641 25.7198 46.1661 25.1706C46.6663 24.6241 47.2752 24.1913 47.9919 23.8741C48.7055 23.5577 49.5042 23.3984 50.3849 23.3984C50.9358 23.3984 51.4283 23.4499 51.8614 23.5541C52.2963 23.6588 52.69 23.7946 53.0457 23.9648L52.1092 26.0862C51.8646 25.9874 51.6104 25.9003 51.3481 25.8209C51.0853 25.7405 50.7646 25.7017 50.3854 25.7017C49.4793 25.7017 48.7626 26.0126 48.2293 26.6327C47.6983 27.2537 47.4306 28.089 47.4306 29.1373C47.4306 29.7587 47.5651 30.2605 47.8352 30.645C48.1038 31.029 48.5999 31.2199 49.3207 31.2199C49.6764 31.2199 50.0193 31.1829 50.3482 31.1107C50.6794 31.0376 50.9716 30.946 51.2294 30.8368L51.4319 33.011C51.0885 33.1442 50.7098 33.2642 50.2943 33.3689C49.878 33.4704 49.3823 33.5223 48.8074 33.5223C48.049 33.5223 47.4066 33.4122 46.8815 33.1942C46.3559 32.9731 45.9215 32.6793 45.5794 32.3075C45.2356 31.9347 44.9886 31.4993 44.836 30.9997C44.6828 30.5019 44.6054 29.9776 44.6054 29.4306H44.6054Z" fill="#4D4D4D"/>
<path fill-rule="evenodd" clip-rule="evenodd" d="M56.6674 33.5232C56.0191 33.5232 55.4564 33.4253 54.9788 33.2308C54.5027 33.0358 54.1085 32.7628 53.7964 32.4086C53.4842 32.0561 53.25 31.6382 53.0901 31.1572C52.9297 30.6766 52.8531 30.1436 52.8531 29.5601C52.8531 28.8277 52.9714 28.0957 53.2097 27.3656C53.4471 26.6345 53.7991 25.9774 54.2657 25.393C54.7283 24.8077 55.2987 24.3294 55.971 23.9562C56.642 23.5861 57.4144 23.3997 58.2816 23.3997C58.9177 23.3997 59.4781 23.4981 59.962 23.6926C60.4435 23.8876 60.8404 24.1624 61.1544 24.5149C61.4647 24.8691 61.7008 25.2852 61.8593 25.7671C62.0193 26.2468 62.0976 26.7812 62.0976 27.3651C62.0976 28.0953 61.9812 28.8272 61.7501 29.5597C61.5186 30.288 61.1757 30.9469 60.7226 31.5322C60.2705 32.1166 59.7051 32.5945 59.0259 32.9663C58.3468 33.3373 57.5599 33.5232 56.6674 33.5232ZM58.0243 25.7026C57.6215 25.7026 57.2658 25.819 56.9609 26.0492C56.6551 26.2816 56.3983 26.574 56.1912 26.9265C55.9819 27.2803 55.8265 27.6675 55.7218 28.0867C55.6181 28.5077 55.5669 28.9053 55.5669 29.2835C55.5669 29.8932 55.6657 30.3679 55.8596 30.71C56.0567 31.0498 56.41 31.2208 56.9242 31.2208C57.3284 31.2208 57.6822 31.1053 57.9889 30.8729C58.2929 30.6423 58.5498 30.3499 58.7586 29.9965C58.9666 29.6445 59.1234 29.2564 59.228 28.8363C59.3308 28.4166 59.3829 28.0168 59.3829 27.6395C59.3829 27.0312 59.2846 26.5555 59.0889 26.2139C58.8932 25.8732 58.538 25.7026 58.0243 25.7026Z" fill="#4D4D4D"/>
<path fill-rule="evenodd" clip-rule="evenodd" d="M65.0561 33.2673H62.3387L64.632 23.6556H67.3675L65.0561 33.2673ZM66.3754 22.4855C65.9966 22.4855 65.6532 22.3727 65.3487 22.1479C65.0425 21.9241 64.8889 21.5793 64.8889 21.1149C64.8889 20.8595 64.9414 20.6194 65.0452 20.3938C65.1489 20.1682 65.2867 19.9732 65.4584 19.8085C65.6292 19.6447 65.8294 19.5138 66.0546 19.415C66.2802 19.318 66.5217 19.2697 66.7786 19.2697C67.1582 19.2697 67.5012 19.3821 67.8065 19.6072C68.1123 19.8333 68.2664 20.1781 68.2664 20.6398C68.2664 20.8961 68.2116 21.1371 68.1087 21.3627C68.0059 21.5883 67.8686 21.7824 67.6974 21.948C67.5252 22.1118 67.3277 22.2422 67.102 22.3402C66.8746 22.4385 66.6336 22.4855 66.3754 22.4855Z" fill="#4D4D4D"/>
<path fill-rule="evenodd" clip-rule="evenodd" d="M69.3229 24.0938C69.529 24.0338 69.7592 23.9616 70.0097 23.8831C70.2612 23.8046 70.5416 23.7315 70.8551 23.6656C71.1654 23.5979 71.5152 23.5433 71.9003 23.5C72.2854 23.4566 72.7235 23.4354 73.2114 23.4354C74.6431 23.4354 75.6307 23.8506 76.1757 24.6791C76.7198 25.5077 76.8145 26.6413 76.4607 28.0777L75.2121 33.2674H72.4788L73.6894 28.1869C73.7628 27.8697 73.8212 27.5628 73.8638 27.2631C73.9073 26.9667 73.9046 26.7049 73.8543 26.4784C73.8067 26.2545 73.6926 26.0718 73.5163 25.9296C73.3369 25.7893 73.066 25.7198 72.6986 25.7198C72.3447 25.7198 71.9846 25.7577 71.6167 25.8308L69.8367 33.2674H67.1025L69.3229 24.0938Z" fill="#4D4D4D"/>
<path fill-rule="evenodd" clip-rule="evenodd" d="M36.5143 38.9958L35.9815 39.9598H35.4053C35.8112 39.2305 36.2072 38.559 36.5932 37.9453C36.9792 37.3315 37.3606 36.7521 37.7376 36.207H38.254C38.3084 36.4777 38.3582 36.7517 38.4035 37.0274C38.4488 37.3036 38.4932 37.5933 38.5367 37.8965C38.5802 38.1998 38.6219 38.5216 38.6618 38.8609C38.7016 39.2003 38.7433 39.5663 38.7868 39.9602H38.254C38.2359 39.7978 38.2196 39.6344 38.2051 39.4701C38.1906 39.3059 38.1743 39.1479 38.1562 38.9963H36.5143V38.9958ZM38.1072 38.573C38.0782 38.281 38.0447 37.99 38.0067 37.7011C37.9686 37.4123 37.9242 37.1145 37.8735 36.8076C37.7466 36.9917 37.5889 37.2296 37.4005 37.5197C37.212 37.8108 36.9982 38.1614 36.759 38.573H38.1072Z" fill="#4D4D4D"/>
<path fill-rule="evenodd" clip-rule="evenodd" d="M40.7136 40.0406C40.4781 40.0406 40.2706 40.0063 40.0911 39.9377C39.9117 39.8691 39.7622 39.7716 39.6426 39.6452C39.523 39.5193 39.4333 39.3664 39.3735 39.1876C39.3137 39.0089 39.2838 38.8077 39.2838 38.5838C39.2838 38.2589 39.3355 37.9484 39.4388 37.6524C39.542 37.3568 39.6888 37.0951 39.8791 36.8676C40.0694 36.6402 40.2986 36.4588 40.5668 36.3229C40.8351 36.1876 41.1336 36.1199 41.4639 36.1199C41.7466 36.1199 41.9722 36.1488 42.1407 36.2065C42.3093 36.2643 42.4298 36.3184 42.5023 36.369L42.2848 36.8022C42.201 36.748 42.0882 36.6966 41.945 36.6479C41.8019 36.5996 41.6324 36.5748 41.4367 36.5748C41.1866 36.5748 40.9619 36.6334 40.7626 36.7512C40.5632 36.8685 40.3947 37.0202 40.257 37.2061C40.1192 37.392 40.0141 37.6014 39.9416 37.8343C39.8692 38.0671 39.8329 38.2973 39.8329 38.5247C39.8329 39.2287 40.1392 39.5807 40.7517 39.5807C40.8822 39.5807 40.9991 39.5712 41.1024 39.5532C41.2057 39.5356 41.2972 39.5144 41.3769 39.4909C41.4566 39.4674 41.5273 39.4417 41.5889 39.4124C41.6505 39.3835 41.7049 39.3582 41.752 39.3366L41.8173 39.7915C41.7738 39.8167 41.7167 39.8438 41.646 39.8727C41.5753 39.9016 41.4929 39.9286 41.3986 39.9544C41.3044 39.9796 41.1993 40.0004 41.0833 40.0166C40.9673 40.0329 40.8441 40.0406 40.7136 40.0406Z" fill="#4D4D4D"/>
<path fill-rule="evenodd" clip-rule="evenodd" d="M43.7681 40.0406C43.5325 40.0406 43.325 40.0063 43.1456 39.9377C42.9662 39.8691 42.8167 39.7716 42.6971 39.6452C42.5775 39.5193 42.4878 39.3664 42.428 39.1876C42.3682 39.0089 42.3383 38.8077 42.3383 38.5838C42.3383 38.2589 42.3899 37.9484 42.4932 37.6524C42.5965 37.3568 42.7433 37.0951 42.9336 36.8676C43.1239 36.6402 43.3531 36.4588 43.6213 36.3229C43.8895 36.1876 44.1881 36.1199 44.5184 36.1199C44.8011 36.1199 45.0267 36.1488 45.1952 36.2065C45.3638 36.2643 45.4843 36.3184 45.5568 36.369L45.3393 36.8022C45.2555 36.748 45.1427 36.6966 44.9995 36.6479C44.8563 36.5996 44.6869 36.5748 44.4912 36.5748C44.2411 36.5748 44.0164 36.6334 43.817 36.7512C43.6177 36.8685 43.4492 37.0202 43.3114 37.2061C43.1737 37.392 43.0686 37.6014 42.9961 37.8343C42.9236 38.0671 42.8874 38.2973 42.8874 38.5247C42.8874 39.2287 43.1937 39.5807 43.8062 39.5807C43.9367 39.5807 44.0535 39.5712 44.1568 39.5532C44.2601 39.5356 44.3516 39.5144 44.4314 39.4909C44.5111 39.4674 44.5818 39.4417 44.6434 39.4124C44.705 39.3835 44.7594 39.3582 44.8065 39.3366L44.8718 39.7915C44.8283 39.8167 44.7712 39.8438 44.7005 39.8727C44.6298 39.9016 44.5474 39.9286 44.4531 39.9544C44.3589 39.9796 44.2538 40.0004 44.1378 40.0166C44.0218 40.0329 43.8986 40.0406 43.7681 40.0406Z" fill="#4D4D4D"/>
<path fill-rule="evenodd" clip-rule="evenodd" d="M45.2279 39.9593L46.1303 36.2065H48.3539L48.2506 36.6452H46.5489L46.2771 37.7769H47.7885L47.6852 38.2048H46.1793L45.8585 39.5207H47.6852L47.5819 39.9593H45.2279H45.2279Z" fill="#4D4D4D"/>
<path fill-rule="evenodd" clip-rule="evenodd" d="M49.9278 36.1686C50.3663 36.1686 50.6971 36.2516 50.92 36.4177C51.1429 36.5838 51.2543 36.8257 51.2543 37.1434C51.2543 37.3889 51.2081 37.6014 51.1157 37.7797C51.0233 37.9584 50.8919 38.1055 50.7215 38.2215C50.5512 38.337 50.3464 38.4223 50.1072 38.4782C49.868 38.5342 49.6016 38.5626 49.308 38.5626H48.9329L48.5958 39.9598H48.0685L48.9601 36.2557C49.1123 36.2196 49.2736 36.1961 49.4439 36.1853C49.6143 36.174 49.7756 36.1686 49.9278 36.1686ZM49.8626 36.6127C49.6052 36.6127 49.4494 36.6199 49.395 36.6343L49.0362 38.1236H49.3787C49.5309 38.1236 49.6868 38.1105 49.8463 38.0829C50.0057 38.0559 50.1489 38.008 50.2757 37.9399C50.4026 37.8713 50.5068 37.7765 50.5884 37.6551C50.6699 37.5342 50.7107 37.3785 50.7107 37.1872C50.7107 36.9814 50.6346 36.8343 50.4823 36.7454C50.3301 36.6569 50.1235 36.6127 49.8626 36.6127Z" fill="#4D4D4D"/>
<path fill-rule="evenodd" clip-rule="evenodd" d="M54.4705 36.2065L54.3672 36.6452H53.231L52.4318 39.9593H51.9044L52.7036 36.6452H51.5674L51.6707 36.2065H54.4705Z" fill="#4D4D4D"/>
<path fill-rule="evenodd" clip-rule="evenodd" d="M53.9812 39.9593L54.8837 36.2065H57.1073L57.004 36.6452H55.3023L55.0305 37.7769H56.5419L56.4386 38.2048H54.9326L54.6119 39.5207H56.4386L56.3353 39.9593H53.9812H53.9812Z" fill="#4D4D4D"/>
<path fill-rule="evenodd" clip-rule="evenodd" d="M58.673 36.1686C59.2312 36.1686 59.648 36.2995 59.9234 36.5612C60.1989 36.823 60.3366 37.1759 60.3366 37.6199C60.3366 37.9304 60.2877 38.2291 60.1898 38.5157C60.092 38.8032 59.9397 39.0563 59.7332 39.277C59.5266 39.4968 59.2629 39.6723 58.9421 39.8023C58.6214 39.9323 58.2381 39.9972 57.7923 39.9972C57.6401 39.9972 57.4751 39.99 57.2976 39.9756C57.12 39.9611 56.9641 39.9359 56.83 39.8998L57.7053 36.2553C57.8575 36.2192 58.0188 36.1957 58.1892 36.1849C58.3595 36.174 58.5208 36.1686 58.673 36.1686ZM58.6295 36.6127C58.3577 36.6127 58.1946 36.6199 58.1402 36.6343L57.4443 39.5261C57.4733 39.5333 57.5223 39.5397 57.5911 39.5451C57.66 39.5505 57.7724 39.5532 57.9282 39.5532C58.2145 39.5532 58.4728 39.5058 58.7029 39.4101C58.9331 39.3145 59.1279 39.1809 59.2874 39.009C59.4468 38.8375 59.5701 38.6339 59.657 38.3975C59.744 38.161 59.7875 37.902 59.7875 37.6204C59.7875 37.3027 59.6951 37.0554 59.5103 36.878C59.3254 36.7016 59.0318 36.6127 58.6295 36.6127Z" fill="#4D4D4D"/>
<path fill-rule="evenodd" clip-rule="evenodd" d="M64.3978 39.9593H63.8704L64.289 38.2156H62.5439L62.1253 39.9593H61.5979L62.5004 36.2065H63.0277L62.6472 37.7769H64.3928L64.7733 36.2065H65.3007L64.3978 39.9593Z" fill="#4D4D4D"/>
<path fill-rule="evenodd" clip-rule="evenodd" d="M65.2296 39.9593L66.132 36.2065H68.3556L68.2519 36.6452H66.5502L66.2784 37.7769H67.7897L67.686 38.2048H66.1801L65.8597 39.5207H67.686L67.5822 39.9593H65.2296H65.2296Z" fill="#4D4D4D"/>
<path fill-rule="evenodd" clip-rule="evenodd" d="M69.9295 36.1686C70.3318 36.1686 70.6508 36.2498 70.8864 36.4123C71.1219 36.5748 71.2393 36.813 71.2393 37.1267C71.2393 37.4444 71.1464 37.7111 70.9598 37.9259C70.7731 38.1407 70.5112 38.295 70.1742 38.3884C70.2177 38.4647 70.2684 38.5613 70.3264 38.6786C70.3844 38.7959 70.4442 38.9259 70.5058 39.0685C70.567 39.2107 70.6272 39.3591 70.6852 39.5121C70.7432 39.666 70.7935 39.8145 70.8374 39.9589H70.2992C70.2489 39.8217 70.1959 39.6827 70.1415 39.5419C70.0876 39.4011 70.0319 39.2657 69.9762 39.1357C69.9195 39.0058 69.8638 38.8839 69.8072 38.7702C69.7515 38.6565 69.6994 38.5559 69.6522 38.4697C69.6051 38.4733 69.558 38.476 69.5109 38.4778C69.4638 38.4796 69.4171 38.4805 69.3695 38.4805H68.9509L68.5975 39.9589H68.0702L68.9622 36.2548C69.1145 36.2187 69.2753 36.1952 69.4461 36.1844C69.616 36.174 69.7773 36.1686 69.9295 36.1686ZM69.8643 36.6127C69.6069 36.6127 69.4511 36.6199 69.3963 36.6343L69.0538 38.0536H69.375C69.5236 38.0536 69.6758 38.0428 69.8317 38.0211C69.9875 37.9994 70.1298 37.957 70.258 37.8938C70.3866 37.8307 70.4918 37.7422 70.5733 37.6285C70.6549 37.5148 70.6961 37.3641 70.6961 37.1763C70.6961 36.9742 70.6191 36.8297 70.465 36.7431C70.311 36.656 70.1103 36.6127 69.8643 36.6127Z" fill="#4D4D4D"/>
<path fill-rule="evenodd" clip-rule="evenodd" d="M71.2796 39.9593L72.1821 36.2065H74.4056L74.3019 36.6452H72.6002L72.3284 37.7769H73.8398L73.736 38.2048H72.2301L71.9098 39.5207H73.736L73.6323 39.9593H71.2796H71.2796Z" fill="#4D4D4D"/>
<path fill-rule="evenodd" clip-rule="evenodd" d="M14.4875 33.5223C18.4894 33.5223 21.7336 30.2908 21.7336 26.3046C21.7336 22.3184 18.4894 19.0869 14.4875 19.0869C10.4856 19.0869 7.24138 22.3184 7.24138 26.3046C7.24138 30.2908 10.4856 33.5223 14.4875 33.5223ZM17.6824 25.2757C17.8264 24.3149 17.092 23.7987 16.0881 23.4539L16.4138 22.152L15.6187 21.9543L15.3016 23.222C15.0927 23.1701 14.878 23.1209 14.6642 23.0726L14.9836 21.7968L14.1889 21.5992L13.8627 22.9006C13.6896 22.8614 13.5197 22.8226 13.3548 22.7815L13.3557 22.7775L12.2589 22.5049L12.0473 23.351C12.0473 23.351 12.6372 23.4855 12.625 23.4941C12.9471 23.5744 13.0055 23.7865 12.9956 23.9548L12.6245 25.4373C12.6467 25.4427 12.6753 25.4504 12.7074 25.4639C12.6807 25.4567 12.6526 25.4499 12.6232 25.4427L12.1031 27.5204C12.0636 27.6174 11.9635 27.7636 11.7384 27.7081C11.7465 27.7194 11.1603 27.5646 11.1603 27.5646L10.7652 28.4716L11.8 28.7284C11.9925 28.7763 12.1814 28.8268 12.3667 28.8742L12.0378 30.1906L12.832 30.3882L13.1582 29.0858C13.3752 29.144 13.5859 29.1987 13.792 29.2496L13.4672 30.5457L14.2623 30.7434L14.5917 29.4297C15.9481 29.6851 16.9679 29.5822 17.397 28.3602C17.7431 27.3759 17.3797 26.8087 16.6662 26.4387C17.1863 26.3195 17.5777 25.9793 17.6824 25.2757ZM15.8652 27.8141C15.6192 28.7979 13.9565 28.2658 13.4174 28.1323L13.8541 26.3885C14.3932 26.5226 16.1221 26.7879 15.8652 27.8141ZM16.1112 25.2617C15.8869 26.1561 14.5029 25.7017 14.0539 25.5907L14.4499 24.0085C14.8988 24.1204 16.3445 24.3285 16.1112 25.2617Z" fill="#F7931A"/>
</svg>
