<svg width="17" height="20" viewBox="0 0 17 20" fill="none" xmlns="http://www.w3.org/2000/svg"><path fill-rule="evenodd" clip-rule="evenodd" d="M6.86163 10.9959L9.3108 12.6062L9.31065 15.5937L6.85034 20L6.86163 10.9959Z" fill="#62B22F"/><path fill-rule="evenodd" clip-rule="evenodd" d="M4.83068 9.72375L7.27441 11.1398L0.0197754 15.5457L2.38766 11.2361L4.83068 9.72375Z" fill="#974995"/><path fill-rule="evenodd" clip-rule="evenodd" d="M16.226 5.6523L11.5572 5.62901L9.30858 4.27715L6.8645 0L16.226 5.6523Z" fill="#EE7024"/><path fill-rule="evenodd" clip-rule="evenodd" d="M6.86443 0L9.30851 4.27715L9.31345 10.1708L6.84961 9.41791L6.86443 0Z" fill="#FBB61B"/><path fill-rule="evenodd" clip-rule="evenodd" d="M0 4.30325L2.3954 8.65801L2.38764 11.2362L0.0197559 15.5458L0 4.30325Z" fill="#5A58A3"/><path fill-rule="evenodd" clip-rule="evenodd" d="M0 4.30325L16.1892 14.2087L11.5501 14.2412L2.3954 8.65801L0 4.30325Z" fill="#2188CB"/><path fill-rule="evenodd" clip-rule="evenodd" d="M11.5572 5.62903L16.226 5.65231L9.31565 9.90053L9.30859 6.99924L11.5572 5.62903Z" fill="#DA0954"/><path fill-rule="evenodd" clip-rule="evenodd" d="M9.31065 15.5937L11.5501 14.2412L16.1892 14.2087L6.85034 20L9.31065 15.5937Z" fill="#037F37"/></svg>
