<?xml version="1.0" standalone="no"?>
<!DOCTYPE svg PUBLIC "-//W3C//DTD SVG 20010904//EN"
 "http://www.w3.org/TR/2001/REC-SVG-20010904/DTD/svg10.dtd">
<svg version="1.0" xmlns="http://www.w3.org/2000/svg"
 width="2217.000000pt" height="2104.000000pt" viewBox="0 0 2217.000000 2104.000000"
 preserveAspectRatio="xMidYMid meet">

<g transform="translate(0.000000,2104.000000) scale(0.100000,-0.100000)"
fill="#000000" stroke="none">
<path d="M6997 21025 c-158 -27 -283 -86 -443 -210 -34 -26 -64 -43 -73 -40
-8 3 -61 11 -117 17 -87 10 -113 9 -168 -5 -36 -9 -79 -26 -95 -38 -22 -16
-37 -20 -63 -15 -49 9 -84 -5 -218 -84 -127 -75 -219 -144 -267 -199 -90 -103
-75 -95 -289 -161 -292 -91 -478 -192 -581 -317 -63 -76 -176 -242 -218 -318
-21 -38 -68 -119 -105 -180 -37 -60 -81 -135 -99 -166 -35 -63 -63 -87 -166
-144 -96 -54 -252 -160 -298 -204 -50 -46 -146 -163 -182 -220 -35 -56 -80
-187 -96 -277 -8 -44 -10 -122 -6 -220 5 -143 7 -156 46 -269 l41 -118 -16
-59 c-28 -110 -115 -276 -188 -358 -112 -126 -168 -220 -217 -362 -43 -124
-45 -242 -6 -399 25 -102 44 -142 128 -261 10 -15 19 -30 19 -34 0 -4 12 -23
27 -43 24 -30 29 -49 33 -117 5 -69 12 -94 54 -180 41 -85 56 -105 97 -135 26
-18 48 -42 49 -52 1 -38 52 -144 89 -182 21 -22 44 -56 52 -75 27 -69 108
-170 183 -228 27 -21 29 -28 38 -125 10 -103 47 -232 94 -327 12 -25 30 -72
39 -105 87 -303 130 -428 169 -493 19 -32 44 -95 56 -142 12 -46 28 -99 35
-118 23 -54 87 -129 125 -147 l36 -16 22 -127 c36 -211 37 -236 8 -325 -14
-43 -26 -97 -26 -121 0 -35 -4 -45 -25 -56 -40 -21 -58 -84 -54 -187 4 -80 7
-94 37 -139 17 -28 32 -62 32 -75 0 -30 55 -149 70 -149 5 0 19 -9 30 -20 15
-15 20 -33 20 -77 0 -81 14 -122 57 -168 21 -22 46 -56 55 -75 10 -19 27 -47
39 -62 l22 -27 -26 -73 c-33 -94 -39 -161 -27 -289 12 -121 32 -199 65 -250
l24 -37 -30 -46 c-16 -26 -29 -48 -29 -50 0 -2 -16 -28 -35 -57 -30 -43 -145
-270 -145 -284 0 -3 -11 -28 -24 -57 -13 -29 -33 -73 -44 -98 -34 -76 -94
-310 -132 -514 -11 -60 -25 -114 -30 -121 -6 -7 -97 -100 -203 -207 -106 -107
-237 -242 -293 -299 -55 -57 -128 -129 -161 -159 -34 -30 -110 -113 -170 -185
-60 -71 -117 -136 -126 -143 -9 -8 -40 -20 -69 -28 -137 -39 -194 -54 -209
-54 -9 0 -77 40 -151 89 -174 116 -224 133 -383 134 -100 1 -132 -3 -189 -22
-38 -12 -117 -28 -175 -36 -109 -14 -179 -37 -266 -89 -96 -56 -243 -156 -272
-183 -62 -59 -179 -211 -278 -360 -70 -106 -275 -432 -275 -437 0 -2 -34 -54
-76 -117 -78 -117 -145 -247 -223 -434 l-29 -70 -401 -3 -401 -2 0 -3905 0
-3905 8310 0 8310 0 0 1350 0 1350 -1820 0 -1820 0 0 1205 0 1205 4595 0 4595
0 0 1350 0 1350 -3179 0 c-2531 0 -3181 3 -3189 13 -5 6 -40 73 -77 147 -116
235 -137 272 -271 475 -151 228 -199 288 -356 440 -280 272 -393 351 -616 430
-37 13 -98 35 -137 49 -145 53 -359 60 -480 16 -102 -37 -301 -132 -412 -197
-46 -26 -45 -26 -188 17 -33 10 -100 30 -150 45 -197 58 -291 87 -310 96 -11
5 -101 38 -200 74 -448 160 -615 234 -1070 475 -219 116 -207 107 -228 186
-10 38 -27 84 -38 102 -10 18 -19 42 -19 53 0 49 -134 203 -219 250 -65 37
-139 98 -265 219 -128 122 -126 120 -218 200 -46 41 -85 76 -88 79 -3 4 -34
31 -70 61 -104 87 -177 159 -247 243 -161 192 -324 493 -368 681 -14 59 -14
62 6 75 11 8 58 61 105 117 60 74 99 133 135 207 46 98 50 110 55 203 2 54 12
132 21 172 12 57 14 96 8 175 -7 90 -8 205 -4 397 1 63 -21 121 -78 207 -34
51 -37 62 -35 118 1 34 6 74 12 89 17 47 11 224 -15 394 -13 90 -27 167 -30
172 -5 9 12 161 45 405 17 124 39 312 57 501 3 39 -1 103 -12 174 l-19 113 30
24 c16 13 55 37 87 53 93 47 109 63 166 160 59 100 82 121 187 172 113 55 235
159 296 252 82 127 95 249 53 496 -25 148 -43 206 -95 311 -66 130 -134 343
-155 489 -21 136 -21 421 -1 545 20 124 21 264 2 335 -15 56 -81 199 -115 248
-10 15 -35 52 -55 83 -46 69 -163 185 -236 233 -30 20 -74 54 -97 76 -29 27
-55 42 -82 46 -28 5 -41 12 -45 28 -4 11 -16 57 -27 101 -19 74 -53 144 -168
345 -73 129 -173 245 -271 315 -30 22 -100 81 -155 132 -64 60 -124 106 -166
127 -59 30 -185 74 -259 90 -14 3 -57 40 -100 87 -119 131 -310 271 -420 309
-58 20 -112 51 -165 94 -71 59 -93 71 -152 85 -28 7 -66 24 -85 38 -55 41 -87
54 -208 85 -86 22 -145 31 -234 34 -127 4 -145 10 -195 65 -33 35 -91 64 -166
84 -69 18 -93 18 -198 0z m-3477 -13750 c-8 -252 -5 -1592 3 -1672 l7 -73
-360 0 -360 0 0 690 0 690 -817 -2 -818 -3 -3 -687 -2 -688 -355 0 -355 0 7
208 c10 268 10 1226 0 1495 l-7 207 1532 -2 1533 -3 -5 -160z m994 143 c7 -13
117 -233 242 -490 126 -257 231 -468 234 -468 3 1 17 26 32 58 14 31 79 167
143 302 123 257 222 483 250 569 l17 51 364 0 c219 0 364 -4 364 -9 0 -32
-440 -932 -629 -1285 -136 -255 -176 -313 -305 -441 -190 -188 -401 -301 -666
-355 -114 -23 -407 -47 -420 -34 -5 5 -22 59 -40 119 -50 178 -90 295 -131
383 -30 66 -35 82 -21 78 123 -36 502 -35 569 2 21 12 -210 482 -596 1212 -91
173 -167 318 -169 322 -2 4 165 8 372 8 l376 0 14 -22z m2526 -668 l0 -690
880 0 880 0 0 690 0 690 330 0 330 0 0 -690 0 -690 880 0 880 0 0 690 0 690
357 -2 357 -3 -2 -45 c-19 -329 -17 -1754 3 -1837 l5 -23 -2805 0 -2805 0 7
213 c10 273 10 1198 0 1480 l-7 217 355 0 355 0 0 -690z m5930 345 l0 -345 50
0 c49 0 51 1 177 112 136 119 460 438 535 526 l44 52 490 -2 489 -3 -465 -400
c-255 -220 -464 -404 -465 -408 0 -5 42 -26 93 -47 185 -78 370 -208 466 -329
90 -112 150 -223 267 -494 38 -89 79 -177 89 -194 l19 -33 -448 0 -448 0 -37
128 c-71 245 -112 325 -203 393 -66 50 -102 67 -191 90 -81 21 -414 48 -445
36 -16 -6 -17 -34 -17 -327 l0 -320 -375 0 -376 0 8 238 c10 308 10 1131 0
1435 l-8 237 375 0 376 0 0 -345z m5640 -15 l0 -360 1165 0 1165 0 0 360 0
360 355 0 355 0 -7 -302 c-10 -387 -10 -919 0 -1305 l7 -303 -355 0 -355 0 0
355 0 355 -1165 0 -1165 0 0 -355 0 -355 -356 0 -355 0 8 263 c10 338 10 1037
0 1380 l-8 267 355 0 356 0 0 -360z m-2770 263 c-1 -49 -11 -376 -24 -728 -13
-352 -22 -642 -20 -644 1 -2 167 326 368 728 l366 731 560 0 560 0 -8 -232
c-9 -301 -9 -1114 0 -1425 l8 -243 -390 0 c-215 0 -390 3 -390 8 0 4 11 288
25 632 14 344 25 661 25 705 l0 80 -364 -710 -364 -710 -546 -3 -546 -2 8 182
c9 237 9 1299 0 1536 l-8 182 370 0 370 0 0 -87z m-13955 -2393 c168 -11 328
-37 460 -75 191 -55 409 -184 521 -308 49 -54 124 -160 124 -174 0 -5 -53 -26
-117 -47 -97 -32 -241 -88 -484 -188 -24 -10 -31 -6 -100 64 -78 79 -140 115
-269 157 -181 60 -431 67 -582 18 -182 -58 -294 -183 -321 -356 -37 -243 111
-454 362 -517 134 -34 400 -34 531 0 144 37 251 110 312 212 18 30 36 54 40
54 4 0 81 -31 170 -69 90 -38 230 -94 311 -126 165 -64 158 -53 104 -144 -73
-123 -228 -256 -371 -320 -157 -71 -396 -129 -620 -152 -152 -15 -513 -6 -656
16 -429 66 -699 231 -835 510 -136 281 -119 684 41 955 191 323 569 483 1179
498 28 1 117 -3 200 -8z m2115 -395 l0 -345 44 0 c42 0 51 6 172 112 138 120
462 438 536 526 l44 52 489 -2 489 -3 -430 -369 c-236 -203 -446 -385 -466
-404 l-38 -36 88 -36 c238 -98 424 -240 536 -409 52 -77 136 -244 196 -386 23
-55 60 -135 81 -177 22 -43 39 -80 39 -83 0 -3 -200 -5 -445 -5 l-444 0 -27
88 c-86 287 -105 330 -176 402 -60 61 -168 115 -268 135 -41 8 -153 18 -247
22 l-173 6 0 -326 0 -327 -381 0 -382 0 7 68 c17 182 26 914 17 1300 -6 224
-13 437 -17 475 l-6 67 381 0 381 0 0 -345z m4305 -604 c234 -520 425 -948
425 -953 0 -4 -176 -7 -391 -6 l-390 3 -58 140 c-32 77 -67 161 -79 188 l-21
47 -484 0 -485 0 -27 -67 c-15 -38 -49 -123 -77 -190 l-50 -123 -379 0 c-208
0 -379 2 -379 5 0 6 826 1858 841 1888 9 16 44 17 570 15 l560 -3 424 -944z
m3968 642 c-10 -393 -10 -903 0 -1295 l7 -308 -355 0 -355 0 0 305 0 305 -699
0 -700 0 -126 -177 c-70 -98 -165 -235 -212 -305 l-85 -128 -410 0 c-225 0
-408 4 -406 8 2 5 120 149 263 321 143 171 261 316 263 321 2 6 -2 12 -10 14
-224 69 -299 107 -389 196 -105 104 -159 240 -159 407 0 294 168 491 491 578
87 23 282 51 399 58 30 2 603 4 1273 5 l1217 2 -7 -307z m-11055 -2650 l2
-343 45 0 c43 0 51 5 167 107 156 137 452 427 525 515 l57 68 489 0 c305 0
486 -4 482 -9 -3 -6 -213 -188 -466 -407 -253 -218 -457 -400 -452 -403 4 -4
31 -16 58 -26 149 -54 325 -165 436 -275 117 -116 189 -235 302 -497 36 -83
82 -183 102 -222 l35 -71 -447 2 -448 3 -48 160 c-27 88 -60 184 -75 215 -52
110 -176 203 -314 235 -73 16 -270 35 -375 35 l-73 0 0 -325 0 -325 -380 0
-380 0 7 208 c10 268 10 1226 0 1495 l-7 207 377 -2 378 -3 3 -342z m4302
-599 c234 -520 427 -950 428 -955 2 -5 -152 -9 -392 -9 -235 0 -396 4 -396 9
0 5 -33 90 -74 188 l-74 178 -483 3 c-380 2 -484 0 -491 -10 -4 -7 -40 -93
-79 -190 l-71 -178 -379 0 c-208 0 -379 3 -379 6 0 7 813 1831 836 1877 l15
27 557 0 557 0 425 -946z m3495 936 c613 -7 679 -10 780 -29 322 -60 505 -189
591 -417 71 -190 48 -478 -52 -649 -85 -146 -274 -255 -526 -304 -191 -37
-351 -41 -1670 -41 l-1278 0 0 -230 0 -230 -371 0 -370 0 8 283 c4 155 8 458
8 672 0 215 -4 517 -8 673 l-8 282 1113 -1 c612 0 1415 -5 1783 -9z m4285
-266 l0 -275 -465 7 -465 7 0 -686 0 -687 -380 0 -380 0 0 687 0 686 -460 -7
-460 -7 0 275 0 276 1305 0 1305 0 0 -276z m2340 -670 c234 -520 427 -950 428
-955 2 -5 -158 -9 -390 -9 l-394 0 -13 38 c-8 20 -43 106 -78 190 l-65 152
-485 -2 -485 -3 -75 -187 -75 -188 -379 0 c-208 0 -379 3 -379 7 0 7 802 1806
832 1866 l18 37 558 0 557 0 425 -946z"/>
<path d="M7282 4443 c-11 -27 -79 -185 -151 -352 -73 -167 -130 -305 -128
-307 2 -3 141 -3 309 -2 l306 3 -151 353 c-84 193 -155 352 -158 352 -3 0 -15
-21 -27 -47z"/>
<path d="M9800 4380 c-135 -16 -192 -45 -209 -105 -20 -73 27 -125 138 -152
101 -24 474 -34 1161 -31 l675 3 3 148 3 147 -853 -1 c-469 -1 -882 -5 -918
-9z"/>
<path d="M4491 1808 c-98 -221 -271 -627 -271 -637 0 -8 86 -11 305 -11 227 0
305 3 305 12 0 13 -289 689 -299 701 -4 4 -22 -25 -40 -65z"/>
<path d="M6867 1763 c-4 -3 -7 -98 -7 -210 l0 -204 1313 4 c953 3 1328 7 1370
16 134 27 188 75 195 172 5 73 -11 123 -52 154 -54 41 -133 55 -371 65 -251
11 -2438 13 -2448 3z"/>
<path d="M14611 1808 c-90 -201 -271 -627 -271 -637 0 -8 89 -11 305 -11 216
0 305 3 305 11 0 15 -291 693 -302 704 -3 3 -19 -27 -37 -67z"/>
</g>
</svg>
